<svg width="30" height="30" viewBox="0 0 30 30" fill="none" xmlns="http://www.w3.org/2000/svg">
<path d="M9.9812 2.5H20.0022C22.4875 2.5 24.5022 4.51472 24.5022 7V13.8867C24.5022 16.372 22.4875 18.3867 20.0022 18.3867H9.9812C7.49592 18.3867 5.4812 16.372 5.4812 13.8867V7C5.4812 4.51472 7.49592 2.5 9.9812 2.5Z" stroke="white"/>
<path d="M24.5081 7.74805H26.4296C26.9819 7.74805 27.4296 8.19576 27.4296 8.74805V12.1378C27.4296 12.6901 26.9819 13.1378 26.4296 13.1378H24.5081" stroke="white"/>
<path d="M5.57495 7.74805H3.6534C3.10112 7.74805 2.6534 8.19576 2.6534 8.74805V12.1378C2.6534 12.6901 3.10112 13.1378 3.6534 13.1378H5.57495" stroke="white"/>
<path d="M26.011 13.5547V20.3564C26.011 22.0133 24.6678 23.3564 23.011 23.3564H15.7539" stroke="white" stroke-width="1.2" stroke-linecap="round"/>
<rect x="15.0725" y="21.6943" width="5.97314" height="3.32499" rx="1.6625" fill="white"/>
<rect x="11.1882" y="12.3496" width="7.79159" height="2.40966" rx="1" fill="white"/>
<circle cx="10.0255" cy="8.17907" r="2.05212" fill="white"/>
<circle cx="20.0575" cy="8.17907" r="2.05212" fill="white"/>
<path d="M8.87505 19.9337L11.576 17.9249V19.5369C11.576 19.9743 11.9306 20.3289 12.368 20.3289C12.8054 20.3289 13.16 20.6835 13.16 21.1209V25.4826C13.16 26.5872 12.2646 27.4826 11.16 27.4826H4.50659C3.40202 27.4826 2.50659 26.5872 2.50659 25.4826V22.3289C2.50659 21.2244 3.40202 20.3289 4.50659 20.3289H7.68147C8.11147 20.3289 8.53002 20.1903 8.87505 19.9337Z" stroke="white" stroke-linecap="round"/>
<path d="M4.53711 22.5967H11.345" stroke="white" stroke-linecap="round"/>
<path d="M4.53711 25.3877H11.345" stroke="white" stroke-linecap="round"/>
</svg>
