<svg width="946" height="946" viewBox="0 0 946 946" fill="none" xmlns="http://www.w3.org/2000/svg">
<g clip-path="url(#clip0_56_869)">
<path d="M807.141 807.137C991.785 622.493 991.785 323.127 807.141 138.483C622.498 -46.1609 323.131 -46.161 138.487 138.483C-46.1566 323.127 -46.1566 622.493 138.487 807.137C323.131 991.781 622.498 991.781 807.141 807.137Z" fill="white"/>
<path d="M529.48 443.25L709.79 228.37H660.9L505.04 414.12L349.18 228.37H186.22L423.56 511.22L250.68 717.25H299.57L448 540.35L596.43 717.25H759.39L529.48 443.25ZM256.11 260.96H333.98L689.5 684.66H611.63L256.11 260.96Z" fill="black"/>
</g>
<defs>
<clipPath id="clip0_56_869">
<rect width="945.61" height="945.61" fill="white"/>
</clipPath>
</defs>
</svg>
