<svg xmlns="http://www.w3.org/2000/svg" width="28" height="28" viewBox="0 0 28 28">
    <g fill="none" fill-rule="evenodd">
        <g>
            <g>
                <path d="M0 0H28V28H0z" transform="translate(-1271 -36) translate(1271 36)"/>
                <g fill="#DEE0DB" fill-rule="nonzero">
                    <path d="M10 0C4.477 0 0 4.477 0 10s4.477 10 10 10 10-4.477 10-10C19.994 4.48 15.52.006 10 0zm7.206 5.833h-2.684c-.601-1.392-1.392-2.695-2.351-3.87 2.122.578 3.93 1.968 5.035 3.87zM13.75 10c-.007.848-.14 1.691-.397 2.5H6.647c-.256-.809-.39-1.652-.397-2.5.007-.848.14-1.691.397-2.5h6.706c.256.809.39 1.652.397 2.5zm-6.435 4.167h5.37c-.707 1.396-1.612 2.684-2.685 3.823-1.074-1.139-1.978-2.427-2.685-3.823zm0-8.334C8.022 4.437 8.927 3.15 10 2.01c1.074 1.139 1.978 2.427 2.685 3.823h-5.37zm.518-3.87c-.96 1.175-1.753 2.478-2.355 3.87H2.794C3.9 3.93 5.71 2.54 7.834 1.963zM2.051 7.5h2.866c-.216.816-.328 1.656-.334 2.5.006.844.118 1.684.334 2.5H2.05c-.512-1.627-.512-3.373 0-5zm.743 6.667h2.684c.602 1.392 1.395 2.695 2.355 3.87-2.123-.577-3.934-1.967-5.039-3.87zm9.377 3.87c.959-1.175 1.75-2.478 2.35-3.87h2.685c-1.104 1.902-2.913 3.292-5.035 3.87zm5.778-5.537h-2.866c.216-.816.328-1.656.334-2.5-.006-.844-.118-1.684-.334-2.5h2.865c.512 1.627.512 3.373 0 5h.001z" transform="translate(-1271 -36) translate(1271 36) translate(4 4)"/>
                </g>
            </g>
        </g>
    </g>
</svg>
